# xmcd CD database file
# Copyright (C) 1995-1998 Ti Kan
#
# Track frame offsets:
#	150
#	13790
#	25352
#	38062
#	51342
#	66952
#	80627
#	95187
#	110035
#	125342
#	138042
#	150935
#	165090
#	177859
#	190667
#	203842
#	217285
#	231175
#	245220
#	257882
#
# Disc length: 3613 seconds
#
# Revision: 1
# Processed by: cddbd v1.4PL0 Copyright (c) Steve Scherf et al.
# Submitted via: CDex 1.30Release
#
DISCID=1d0e1b14
DTITLE=Sonny Boy Williamson - Bring Another Half Pint - Disc 1
DYEAR=1900
DGENRE=Blues
TTITLE0=Good Morning Little Schoolgirl
TTITLE1=Got the Bottle Up And Gone
TTITLE2=Black Gal
TTITLE3=I'm Tired Trucking My Blues Away
TTITLE4=Beauty Parlor
TTITLE5=Lord Oh Lord Blues
TTITLE6=You Give An Account
TTITLE7=Deep Down in The Ground
TTITLE8=The Right Kind Of Life
TTITLE9=Good Gravy
TTITLE10=Tell Me, Baby
TTITLE11=Honey Bee Blues
TTITLE12=I Been Dealing With The Devil
TTITLE13=Train Fare Home
TTITLE14=Jivin' The Blues
TTITLE15=Shotgun Blues
TTITLE16=Coal And Iceman Blues
TTITLE17=Mattie Mae Blues
TTITLE18=I'm Gonna Catch You Soon
TTITLE19=You Got To Step Back
EXTD=ID3G:   0
EXTT0=
EXTT1=
EXTT2=
EXTT3=
EXTT4=
EXTT5=
EXTT6=
EXTT7=
EXTT8=
EXTT9=
EXTT10=
EXTT11=
EXTT12=
EXTT13=
EXTT14=
EXTT15=
EXTT16=
EXTT17=
EXTT18=
EXTT19=
PLAYORDER=
